/* XPM */
static char *_cf1e2da14a34b96f423da432360cd82ZsNIKKceFHyZ4qVz_0[] = {
/* columns rows colors chars-per-pixel */
"50 48 4 1 ",
"  c gray3",
". c white",
"X c None",
"o c black",
/* pixels */
"XXXXXXXXXXXXXXXXXXXXXXXXXXXXXXX......XXXXXXXXXXXXX",
"XXXXXXXXXXXXXXXXXXXXXXXXXXXXXXX......XXXXXXXXXXXXX",
"XXXXXXXXXXXXXXXXXXXXXXXXXXXXXXX......XXXXXXXXXXXXX",
"XXXXXXXXXXXXXXX......XXXXXXXXXX......XXXXXXXXXXXXX",
"XXXXXXXXXXXXXXX......XXXXXXXXXX......XXXXXXXXXXXXX",
"XXXXXXXXXXXXXXX.........XXXXXXX.........XXXXXXXXXX",
"XXXXXXXXXXXXXXX.........XXXXXXX.........XXXXXXXXXX",
"XXXXXXXXXXXXXXX.........XXXXXXX.........XXXXXXXXXX",
"XXXXXXXXXXXXXXX.........XXXXXXX.........XXXXXXXXXX",
"XXXXXXXXXXXXXXX.........XXXXXXX.........XXXXXXXXXX",
"XXXXXXXXXXXXXXX.........XXXXXXX.........XXXXXXXXXX",
"XXXXX........................................XXXXX",
"XXXXX........................................XXXXX",
"XX..............................................XX",
"XX..............................................XX",
"XX..............................................XX",
"........................................     .....",
".......................................      .....",
".......................................      .....",
".......................................      .....",
".......................................      .....",
".............................     ................",
".............................     ................",
".............................     ................",
".............................     ................",
".............................     ................",
".............................     ................",
"..................................................",
"..................................................",
"..................................................",
"XX................................................",
"XX................................................",
"XX..............................................XX",
"XX..............................................XX",
"XX..............................................XX",
"XXXXX...........................................XX",
"XXXXX...........................................XX",
"XXXXX......XXXX.......XXXXXX.......XXXXXXX......XX",
"XXXXX......XXXX......XXXXXXXX......XXXXXXX......XX",
"XXX........XXXX......XXXXXXXX.......XXXXXX......XX",
"XX.........XXXX......XXXXXXXX........XXXXX......XX",
"XX.........XXXX......XXXXXXXX........XXXXX......XX",
"XX.........XXXX......XXXXXXXX........XXXXX......XX",
"XX.........XXXX......XXXXXXXXXX......XXXXX......XX",
"XX.........XXXX......XXXXXXXXXX......XXXXX......XX",
"XX......XXXXXXX......XXXXXXXXXX......XXXXX......XX",
"XX......XXXXXXX......XXXXXXXXXX......XXXXX......XX",
"XX......XXXXXXXX.....XXXXXXXXXX......XXXXX......XX"
};
