/* XPM */
static char *_cf1e2da14a34b96f423da432360cd82ZsNIKKceFHyZ4qVz_2[] = {
/* columns rows colors chars-per-pixel */
"50 49 4 1 ",
"  c gray3",
". c white",
"X c black",
"o c None",
/* pixels */
"oooooooooooooooooo......oooooooooooooooooooooooooo",
"oooooooooooooooooo......oooooooooooooooooooooooooo",
"oooooooooooooooooo......oooooooooooooooooooooooooo",
"oooooooooooooooooo......ooooooo......ooooooooooooo",
"oooooooooooooooooo......ooooooo......ooooooooooooo",
"oooooooooooooooooo........ooooo.........oooooooooo",
"oooooooooooooooooo.........oooo.........oooooooooo",
"oooooooooooooooooo.........oooo.........oooooooooo",
"oooooooooooooooooo.........oooo.........oooooooooo",
"oooooooooooooooooo.........oooo.........oooooooooo",
"oooooooooooooooooo.........oooo.........oooooooooo",
"oooooooo................................oooooooooo",
"oooooooo................................oooooooooo",
"oo...........................................ooooo",
"oo...........................................ooooo",
"oo...........................................ooooo",
"................................................oo",
"................................................oo",
"................................................oo",
".......................................      ...oo",
".......................................      ...oo",
".......................................      .....",
".......................................      .....",
".......................................      .....",
".............................     ................",
".............................     ................",
".............................     ................",
".............................     ................",
".............................     ................",
"..................................................",
"oo................................................",
"oo................................................",
"ooooo.............................................",
"ooooo.............................................",
"ooooo.............................................",
"ooooo.............................................",
"ooooo.............................................",
"ooooo......oo...................................oo",
"ooooo......oo...................................oo",
"ooo........oo...................................oo",
"oo.........oo........oooooooo........ooooo......oo",
"oo.........oo........oooooooo........ooooo......oo",
"oo.........oo........oooooooo........ooooo......oo",
"oo......ooooo......oooooooooooo......ooooo......oo",
"oo......ooooo......oooooooooooo......ooooo......oo",
"oo......ooooo......oooooooooooo......ooooo......oo",
"oo......ooooo......oooooooooooo......ooooo......oo",
"oo......ooooo......oooooooooooo......ooooo......oo",
"ooooooooooooooooooooooooooooooo......ooooooooooooo"
};
