/* XPM */
static char *_cf1e2da14a34b96f423da432360cd82ZsNIKKceFHyZ4qVz_1[] = {
/* columns rows colors chars-per-pixel */
"48 45 4 1 ",
"  c gray3",
". c white",
"X c black",
"o c None",
/* pixels */
"oooooooooooooooooo......oooooooooo......oooooooo",
"oooooooooooooooooo......oooooooooo......oooooooo",
"oooooooooooooooooo........oooooooo......oooooooo",
"oooooooooooooooooo.........ooooooo......oooooooo",
"oooooooooooooooooo.........ooooooo......oooooooo",
"oooooooooooooooooo.........ooooooo......oooooooo",
"oooooooooooooooooo.........ooooooo......oooooooo",
"oooooooooooooooooo.........ooooooo......oooooooo",
"ooooo.....................................oooooo",
"ooooo.....................................oooooo",
"oo...........................................ooo",
"oo...........................................ooo",
"oo...........................................ooo",
"oo...................................     ......",
"oo...................................     ......",
".....................................     ......",
".....................................     ......",
".....................................     ......",
".............................     ..............",
".............................     ..............",
".............................     ..............",
".............................     ..............",
".............................     ..............",
".............................     ..............",
"oo..............................................",
"oo..............................................",
"oo..............................................",
"oo..............................................",
"oo..............................................",
"ooooo...........................................",
"ooooo...........................................",
"ooooo...........................................",
"ooooo......oo................................ooo",
"ooooo......oo................................ooo",
"ooooo......oooo.......oooooo.......oooo......ooo",
"ooooo......oooo......oooooooo......oooo......ooo",
"ooooo......ooo.......oooooooo......oooo........o",
"ooooo......oo........oooooooo......oooo.........",
"ooooo......oo........oooooooo......oooo.........",
"ooooo......oo........oooooooo......oooo.........",
"ooooo......oo........oooooooo......oooo.........",
"ooooo......oo........oooooooo......oooo.........",
"ooooo......oo......oooooooooo......ooooooo......",
"ooooo......oo......oooooooooo......ooooooo......",
"ooooo......oo......oooooooooo.....oooooooo......"
};
