/* XPM */
static char *_7da047b093d4c1e8152875ebb9e4809vtH8a81bGWDiBdpL_2[] = {
/* columns rows colors chars-per-pixel */
"50 50 4 1 ",
"  c #E5533B",
". c #421811",
"X c None",
"o c black",
/* pixels */
"XX                                              XX",
"XX           .....................              XX",
"XX           .....................              XX",
"XX           .....................              XX",
"        ..........           ..........           ",
"        ..........           ..........           ",
"        ..........           ...........          ",
"                                  ........        ",
"                                  ........        ",
"     ...                             ........     ",
"     ...                             ........     ",
"     ...                             ........     ",
"   ..                                  ......     ",
"   ..                                  ......     ",
"   ..                                  ......     ",
"   ..                                  ......     ",
"   ..                                  ......     ",
"   ..                                     .....   ",
"   ..                                     .....   ",
"   ..                                     .....   ",
"...                                       .....   ",
"...                                       .....   ",
"...                                          ..   ",
"...                                          ..   ",
"...                                          ..   ",
"...                          ........        ..   ",
"...                          ........        ..   ",
"...                          ........        ..   ",
"...                          ..........      ..   ",
"...                          ..........      ..   ",
"...                          ..........      ..   ",
"...                          ..........      ..   ",
"...                          ..........      ..   ",
"...                             .......      ..   ",
"...                             .......      ..   ",
"...                             .......      ..   ",
"...                                          ..   ",
"...                                          ..   ",
"...                                          ..   ",
"...                                          ..   ",
"...                                          ..   ",
"...                                          ..   ",
"...                                          ..   ",
"...                                          ..   ",
"...                                          ..   ",
"...                                          ..   ",
"...                                          ..   ",
"...                                          ..   ",
"...                                          ..   ",
"...                                          ..   "
};
