/* XPM */
static char *_5c340fdb5b94534aefc28ea689c65ecBAGizTTbv28WxJ6d_0[] = {
/* columns rows colors chars-per-pixel */
"50 42 2 1 ",
"  c None",
". c #EDE285",
/* pixels */
"  ..............                                  ",
"  ..............                                  ",
"..................                                ",
"...................                               ",
"...................                               ",
".....................                             ",
".....................                             ",
".....................                             ",
"......       ........                             ",
"......       ........                             ",
".....        ...........                          ",
"...            .........                          ",
"...            .........                          ",
"...            .........               ...........",
"...            .........               ...........",
"...            ...................................",
"               ...................................",
"               ...................................",
"                ..................................",
"                  ................................",
"                  ................................",
"                  ................................",
"                  ................................",
"...               ................................",
"...               .........       ........  ......",
"...               .........       ........  ......",
"...             ..........        ........  ......",
"...            .........          ........  ......",
"...            .........          ........  ......",
"...            .........          ........  ......",
"...            .........          ........  ......",
".....        ...........          ........   .....",
"......       ........                .....     ...",
"......       ........                .....     ...",
".....................                             ",
".....................                             ",
".....................                             ",
"  .................                               ",
"  .................                               ",
"   ...............                                ",
"     ...........                                  ",
"     ...........                                  "
};
