/* XPM */
static char *_24876ccaa8f4a7193efed3abd2eca3fJiWpigt6Mo8bNdKO_1[] = {
/* columns rows colors chars-per-pixel */
"50 50 4 1 ",
"  c #C29E46",
". c #423618",
"X c None",
"o c black",
/* pixels */
"XXXXXXXXXX                           XXXXXXXXXXXXX",
"XXXXX                                   XXXXXXXXXX",
"XXXXX                                   XXXXXXXXXX",
"XXXXX                                   XXXXXXXXXX",
"XX                                           XXXXX",
"XX                                           XXXXX",
"                                             XXXXX",
"                                       ...   XXXXX",
"                                       ...   XXXXX",
"   ..                                .....      XX",
"   ..                                .....      XX",
"   ..                                .....      XX",
"   ..                                             ",
"   ..                                             ",
"     .....                                        ",
"     ......                                       ",
"     ......                                       ",
"           .....          ...                ..   ",
"           .....          ...                ..   ",
"           .....          ...                ..   ",
"                          ......          .....   ",
"                          ......          .....   ",
"                                .............     ",
"                                .............     ",
"                                .............     ",
"   ..                             ........        ",
"   ..                             ........        ",
"   ..                             ........        ",
"     ...     ...                  ........      XX",
"     ...     ...                  ........      XX",
"           ..........           .....           XX",
"           ..........           .....           XX",
"           ..........           .....           XX",
"                     ...........                XX",
"                     ...........                XX",
"                      ..........                  ",
"             ...                ..           ..   ",
"             ...                ..           ..   ",
"...          ...                ...............   ",
"...          ...                ...............   ",
"...          ...               ................   ",
"   ..        .....           ................     ",
"   ..        .....           ................     ",
"   ..................      .............          ",
"   ..................     .............           ",
"   ..................     .............           ",
"XX   ................................        XXXXX",
"XX   ................................        XXXXX",
"XX   ................................        XXXXX",
"XXXXX      ..................           XXXXXXXXXX"
};
